<svg xmlns="http://www.w3.org/2000/svg" width="256" height="256" viewBox="0 0 100 100"><rect width="100" height="100" rx="20" fill="#7d6ee7"></rect><path fill="#fff" d="M24.44 75.47L24.44 75.47Q24.44 73.67 24.58 72.68Q24.71 71.69 25.79 70.66Q26.87 69.62 29.03 69.62L29.03 69.62Q29.30 69.62 30.20 69.80L30.20 69.80Q29.48 61.43 29.48 53.87L29.48 53.87Q29.48 40.19 30.65 31.10L30.65 31.10Q28.67 31.10 25.70 30.65L25.70 30.65Q25.16 29.93 25.16 25.25Q25.16 20.57 25.43 19.94L25.43 19.94Q28.13 17.69 36.32 17.69L36.32 17.69Q38.75 17.69 42.53 18.05L42.53 18.05Q42.89 19.22 42.89 21.65L42.89 21.65Q45.41 20.12 49.46 18.95Q53.51 17.78 56.75 17.78L56.75 17.78Q63.68 17.78 68.31 23.41Q72.95 29.03 72.95 36.14L72.95 36.14Q72.95 44.51 66.38 50.45L66.38 50.45Q75.56 55.67 75.56 65.39L75.56 65.39Q75.56 72.23 70.83 77.27Q66.11 82.31 59.36 82.31L59.36 82.31Q45.77 82.31 41.72 78.62L41.72 78.62Q41.72 80.96 40.46 81.45Q39.20 81.95 34.61 81.95L34.61 81.95Q29.39 81.95 25.07 80.87L25.07 80.87Q24.44 77.90 24.44 75.47ZM42.35 70.70L42.35 70.70Q42.35 71.24 47.30 72.19Q52.25 73.13 53.87 73.13L53.87 73.13Q56.75 73.13 58.78 70.56Q60.80 68 60.80 64.31Q60.80 60.62 59.36 57.56Q57.92 54.50 54.86 54.50L54.86 54.50Q52.07 54.50 47.48 55.71Q42.89 56.93 42.80 58.10L42.80 58.10Q42.71 59 42.66 60.53Q42.62 62.06 42.53 64.98Q42.44 67.91 42.35 70.70ZM42.35 43.70L42.35 43.70Q42.35 44.24 47.30 45.18Q52.25 46.13 53.87 46.13L53.87 46.13Q56.75 46.13 58.78 43.56Q60.80 41 60.80 37.31Q60.80 33.62 59.36 30.56Q57.92 27.50 54.86 27.50L54.86 27.50Q52.07 27.50 47.48 28.71Q42.89 29.93 42.80 31.10L42.80 31.10Q42.71 32 42.66 33.53Q42.62 35.06 42.53 37.98Q42.44 40.91 42.35 43.70Z"></path></svg>